<svg height="512pt" viewBox="0 -15 512 512" width="512pt" xmlns="http://www.w3.org/2000/svg"><path d="m487.445312 143.339844c32.738282-32.738282 32.738282-86.007813 0-118.746094-32.738281-32.738281-86.003906-32.738281-118.746093 0l-14.261719 14.261719c-24.984375-9.1875-51.65625-14-79.074219-14h-38.6875c-27.417969 0-54.089843 4.808593-79.074219 14l-14.261718-14.261719c-15.859375-15.859375-36.945313-24.59375-59.375-24.59375-22.425782 0-43.511719 8.734375-59.371094 24.59375s-24.59375 36.945312-24.59375 59.371094c0 22.429687 8.734375 43.515625 24.59375 59.375l7.628906 7.628906c-15.777344 31.40625-24.125 66.296875-24.125 102.464844 0 61.058594 23.773438 118.457031 66.949219 161.632812 43.171875 43.171875 100.570313 66.945313 161.628906 66.945313h38.6875c61.058594 0 118.457031-23.773438 161.628907-66.949219 43.171874-43.171875 66.949218-100.574219 66.949218-161.628906 0-36.171875-8.347656-71.058594-24.125-102.464844zm-97.53125-97.53125c10.195313-10.191406 23.746094-15.804688 38.160157-15.804688 14.414062 0 27.964843 5.613282 38.15625 15.804688 21.042969 21.039062 21.042969 55.273437 0 76.316406l-2.191407 2.191406c-7.921874-11.523437-16.945312-22.410156-27.046874-32.507812-15.992188-15.996094-33.945313-29.320313-53.308594-39.769532zm-344.105468 76.316406c-21.042969-21.042969-21.042969-55.277344 0-76.316406 21.039062-21.042969 55.273437-21.039063 76.316406 0l6.230469 6.230468c-19.363281 10.449219-37.316407 23.773438-53.3125 39.765626-10.097657 10.101562-19.121094 20.988281-27.042969 32.511718zm229.554687 329.886719h-38.6875c-109.496093 0-198.578125-89.082031-198.578125-198.578125 0-109.492188 89.082032-198.574219 198.578125-198.574219h38.6875c109.496094 0 198.578125 89.082031 198.578125 198.574219 0 109.496094-89.082031 198.578125-198.578125 198.578125zm0 0"/><path d="m139.335938 204.414062h30.027343v30h-30.027343zm0 0"/><path d="m342.675781 204.414062h30.027344v30h-30.027344zm0 0"/><path d="m271.019531 352.371094c17.472657-6.195313 30.027344-22.878906 30.027344-42.449219 0-24.828125-20.199219-45.027344-45.027344-45.027344s-45.027343 20.199219-45.027343 45.027344c0 19.570313 12.554687 36.253906 30.027343 42.449219v29.625h-30.039062v30.003906h90.078125v-30.003906h-30.039063zm-15-57.472656c8.285157 0 15.023438 6.738281 15.023438 15.023437s-6.738281 15.027344-15.023438 15.027344c-8.285156 0-15.023437-6.742188-15.023437-15.027344s6.738281-15.023437 15.023437-15.023437zm0 0"/></svg>